<mxfile host="www.draw.io" modified="2023-03-27T22:14:03.130Z" agent="Mozilla/5.0 (Windows NT 10.0; Win64; x64) AppleWebKit/537.36 (KHTML, like Gecko) Chrome/111.0.0.0 Safari/537.36" etag="2rq6sNvIs02PHCQbHgOH" version="21.1.1" type="device">
  <diagram name="Page-1" id="2YBvvXClWsGukQMizWep">
    <mxGraphModel dx="477" dy="1306" grid="1" gridSize="10" guides="1" tooltips="1" connect="1" arrows="1" fold="1" page="1" pageScale="1" pageWidth="850" pageHeight="1100" math="0" shadow="0">
      <root>
        <mxCell id="0" />
        <mxCell id="1" parent="0" />
        <mxCell id="ccA4-2zpXpTMtwHoKvW6-1" value="" style="shape=umlLifeline;perimeter=lifelinePerimeter;whiteSpace=wrap;html=1;container=1;dropTarget=0;collapsible=0;recursiveResize=0;outlineConnect=0;portConstraint=eastwest;newEdgeStyle={&quot;edgeStyle&quot;:&quot;elbowEdgeStyle&quot;,&quot;elbow&quot;:&quot;vertical&quot;,&quot;curved&quot;:0,&quot;rounded&quot;:0};participant=umlActor;" vertex="1" parent="1">
          <mxGeometry x="410" y="70" width="20" height="490" as="geometry" />
        </mxCell>
        <mxCell id="ccA4-2zpXpTMtwHoKvW6-6" value="" style="html=1;points=[];perimeter=orthogonalPerimeter;outlineConnect=0;targetShapes=umlLifeline;portConstraint=eastwest;newEdgeStyle={&quot;edgeStyle&quot;:&quot;elbowEdgeStyle&quot;,&quot;elbow&quot;:&quot;vertical&quot;,&quot;curved&quot;:0,&quot;rounded&quot;:0};" vertex="1" parent="ccA4-2zpXpTMtwHoKvW6-1">
          <mxGeometry x="5" y="118" width="10" height="342" as="geometry" />
        </mxCell>
        <mxCell id="ccA4-2zpXpTMtwHoKvW6-2" value=":Controller" style="shape=umlLifeline;perimeter=lifelinePerimeter;whiteSpace=wrap;html=1;container=1;dropTarget=0;collapsible=0;recursiveResize=0;outlineConnect=0;portConstraint=eastwest;newEdgeStyle={&quot;edgeStyle&quot;:&quot;elbowEdgeStyle&quot;,&quot;elbow&quot;:&quot;vertical&quot;,&quot;curved&quot;:0,&quot;rounded&quot;:0};" vertex="1" parent="1">
          <mxGeometry x="740" y="70" width="100" height="530" as="geometry" />
        </mxCell>
        <mxCell id="ccA4-2zpXpTMtwHoKvW6-13" value="" style="html=1;points=[];perimeter=orthogonalPerimeter;outlineConnect=0;targetShapes=umlLifeline;portConstraint=eastwest;newEdgeStyle={&quot;edgeStyle&quot;:&quot;elbowEdgeStyle&quot;,&quot;elbow&quot;:&quot;vertical&quot;,&quot;curved&quot;:0,&quot;rounded&quot;:0};" vertex="1" parent="ccA4-2zpXpTMtwHoKvW6-2">
          <mxGeometry x="45" y="119" width="10" height="80" as="geometry" />
        </mxCell>
        <mxCell id="ccA4-2zpXpTMtwHoKvW6-12" value="" style="html=1;points=[];perimeter=orthogonalPerimeter;outlineConnect=0;targetShapes=umlLifeline;portConstraint=eastwest;newEdgeStyle={&quot;edgeStyle&quot;:&quot;elbowEdgeStyle&quot;,&quot;elbow&quot;:&quot;vertical&quot;,&quot;curved&quot;:0,&quot;rounded&quot;:0};" vertex="1" parent="ccA4-2zpXpTMtwHoKvW6-2">
          <mxGeometry x="45" y="251" width="10" height="80" as="geometry" />
        </mxCell>
        <mxCell id="ccA4-2zpXpTMtwHoKvW6-8" value="" style="html=1;points=[];perimeter=orthogonalPerimeter;outlineConnect=0;targetShapes=umlLifeline;portConstraint=eastwest;newEdgeStyle={&quot;edgeStyle&quot;:&quot;elbowEdgeStyle&quot;,&quot;elbow&quot;:&quot;vertical&quot;,&quot;curved&quot;:0,&quot;rounded&quot;:0};" vertex="1" parent="ccA4-2zpXpTMtwHoKvW6-2">
          <mxGeometry x="45" y="381" width="10" height="80" as="geometry" />
        </mxCell>
        <mxCell id="ccA4-2zpXpTMtwHoKvW6-3" value=":view" style="shape=umlLifeline;perimeter=lifelinePerimeter;whiteSpace=wrap;html=1;container=1;dropTarget=0;collapsible=0;recursiveResize=0;outlineConnect=0;portConstraint=eastwest;newEdgeStyle={&quot;edgeStyle&quot;:&quot;elbowEdgeStyle&quot;,&quot;elbow&quot;:&quot;vertical&quot;,&quot;curved&quot;:0,&quot;rounded&quot;:0};" vertex="1" parent="1">
          <mxGeometry x="560" y="66" width="100" height="500" as="geometry" />
        </mxCell>
        <mxCell id="ccA4-2zpXpTMtwHoKvW6-7" value="" style="html=1;points=[];perimeter=orthogonalPerimeter;outlineConnect=0;targetShapes=umlLifeline;portConstraint=eastwest;newEdgeStyle={&quot;edgeStyle&quot;:&quot;elbowEdgeStyle&quot;,&quot;elbow&quot;:&quot;vertical&quot;,&quot;curved&quot;:0,&quot;rounded&quot;:0};" vertex="1" parent="ccA4-2zpXpTMtwHoKvW6-3">
          <mxGeometry x="44" y="125" width="10" height="80" as="geometry" />
        </mxCell>
        <mxCell id="ccA4-2zpXpTMtwHoKvW6-14" value="" style="html=1;points=[];perimeter=orthogonalPerimeter;outlineConnect=0;targetShapes=umlLifeline;portConstraint=eastwest;newEdgeStyle={&quot;edgeStyle&quot;:&quot;elbowEdgeStyle&quot;,&quot;elbow&quot;:&quot;vertical&quot;,&quot;curved&quot;:0,&quot;rounded&quot;:0};" vertex="1" parent="ccA4-2zpXpTMtwHoKvW6-3">
          <mxGeometry x="44" y="254" width="10" height="80" as="geometry" />
        </mxCell>
        <mxCell id="ccA4-2zpXpTMtwHoKvW6-9" value="" style="html=1;points=[];perimeter=orthogonalPerimeter;outlineConnect=0;targetShapes=umlLifeline;portConstraint=eastwest;newEdgeStyle={&quot;edgeStyle&quot;:&quot;elbowEdgeStyle&quot;,&quot;elbow&quot;:&quot;vertical&quot;,&quot;curved&quot;:0,&quot;rounded&quot;:0};" vertex="1" parent="ccA4-2zpXpTMtwHoKvW6-3">
          <mxGeometry x="44" y="384" width="10" height="80" as="geometry" />
        </mxCell>
        <mxCell id="ccA4-2zpXpTMtwHoKvW6-4" value=":Database" style="shape=umlLifeline;perimeter=lifelinePerimeter;whiteSpace=wrap;html=1;container=1;dropTarget=0;collapsible=0;recursiveResize=0;outlineConnect=0;portConstraint=eastwest;newEdgeStyle={&quot;edgeStyle&quot;:&quot;elbowEdgeStyle&quot;,&quot;elbow&quot;:&quot;vertical&quot;,&quot;curved&quot;:0,&quot;rounded&quot;:0};" vertex="1" parent="1">
          <mxGeometry x="920" y="69" width="100" height="500" as="geometry" />
        </mxCell>
        <mxCell id="ccA4-2zpXpTMtwHoKvW6-11" value="" style="html=1;points=[];perimeter=orthogonalPerimeter;outlineConnect=0;targetShapes=umlLifeline;portConstraint=eastwest;newEdgeStyle={&quot;edgeStyle&quot;:&quot;elbowEdgeStyle&quot;,&quot;elbow&quot;:&quot;vertical&quot;,&quot;curved&quot;:0,&quot;rounded&quot;:0};" vertex="1" parent="ccA4-2zpXpTMtwHoKvW6-4">
          <mxGeometry x="45" y="119" width="10" height="80" as="geometry" />
        </mxCell>
        <mxCell id="ccA4-2zpXpTMtwHoKvW6-10" value="" style="html=1;points=[];perimeter=orthogonalPerimeter;outlineConnect=0;targetShapes=umlLifeline;portConstraint=eastwest;newEdgeStyle={&quot;edgeStyle&quot;:&quot;elbowEdgeStyle&quot;,&quot;elbow&quot;:&quot;vertical&quot;,&quot;curved&quot;:0,&quot;rounded&quot;:0};" vertex="1" parent="ccA4-2zpXpTMtwHoKvW6-4">
          <mxGeometry x="45" y="250" width="10" height="80" as="geometry" />
        </mxCell>
        <mxCell id="ccA4-2zpXpTMtwHoKvW6-16" value="" style="html=1;points=[];perimeter=orthogonalPerimeter;outlineConnect=0;targetShapes=umlLifeline;portConstraint=eastwest;newEdgeStyle={&quot;edgeStyle&quot;:&quot;elbowEdgeStyle&quot;,&quot;elbow&quot;:&quot;vertical&quot;,&quot;curved&quot;:0,&quot;rounded&quot;:0};" vertex="1" parent="ccA4-2zpXpTMtwHoKvW6-4">
          <mxGeometry x="45" y="379" width="10" height="80" as="geometry" />
        </mxCell>
        <mxCell id="ccA4-2zpXpTMtwHoKvW6-17" value="button tambah gejala" style="html=1;verticalAlign=bottom;startArrow=oval;startFill=1;endArrow=block;startSize=8;edgeStyle=elbowEdgeStyle;elbow=vertical;curved=0;rounded=0;" edge="1" parent="1" source="ccA4-2zpXpTMtwHoKvW6-6">
          <mxGeometry width="60" relative="1" as="geometry">
            <mxPoint x="430" y="194" as="sourcePoint" />
            <mxPoint x="600" y="190" as="targetPoint" />
          </mxGeometry>
        </mxCell>
        <mxCell id="ccA4-2zpXpTMtwHoKvW6-23" value="tambah data gejala" style="html=1;verticalAlign=bottom;startArrow=oval;startFill=1;endArrow=block;startSize=8;edgeStyle=elbowEdgeStyle;elbow=vertical;curved=0;rounded=0;" edge="1" parent="1">
          <mxGeometry width="60" relative="1" as="geometry">
            <mxPoint x="614" y="223" as="sourcePoint" />
            <mxPoint x="780" y="223" as="targetPoint" />
          </mxGeometry>
        </mxCell>
        <mxCell id="ccA4-2zpXpTMtwHoKvW6-24" value="insert data gejala" style="html=1;verticalAlign=bottom;startArrow=oval;startFill=1;endArrow=block;startSize=8;edgeStyle=elbowEdgeStyle;elbow=vertical;curved=0;rounded=0;exitX=1.2;exitY=0.563;exitDx=0;exitDy=0;exitPerimeter=0;" edge="1" parent="1" source="ccA4-2zpXpTMtwHoKvW6-13" target="ccA4-2zpXpTMtwHoKvW6-4">
          <mxGeometry width="60" relative="1" as="geometry">
            <mxPoint x="840" y="290" as="sourcePoint" />
            <mxPoint x="900" y="290" as="targetPoint" />
          </mxGeometry>
        </mxCell>
        <mxCell id="ccA4-2zpXpTMtwHoKvW6-25" value="hasil pencarian data" style="html=1;verticalAlign=bottom;endArrow=open;dashed=1;endSize=8;edgeStyle=elbowEdgeStyle;elbow=vertical;curved=0;rounded=0;exitX=-0.2;exitY=0.775;exitDx=0;exitDy=0;exitPerimeter=0;" edge="1" parent="1">
          <mxGeometry relative="1" as="geometry">
            <mxPoint x="963" y="270" as="sourcePoint" />
            <mxPoint x="425" y="270" as="targetPoint" />
          </mxGeometry>
        </mxCell>
        <mxCell id="ccA4-2zpXpTMtwHoKvW6-26" value="button edit gejala" style="html=1;verticalAlign=bottom;startArrow=oval;startFill=1;endArrow=block;startSize=8;edgeStyle=elbowEdgeStyle;elbow=vertical;curved=0;rounded=0;" edge="1" parent="1">
          <mxGeometry width="60" relative="1" as="geometry">
            <mxPoint x="427" y="321" as="sourcePoint" />
            <mxPoint x="602" y="321" as="targetPoint" />
          </mxGeometry>
        </mxCell>
        <mxCell id="ccA4-2zpXpTMtwHoKvW6-27" value="button data gejala" style="html=1;verticalAlign=bottom;startArrow=oval;startFill=1;endArrow=block;startSize=8;edgeStyle=elbowEdgeStyle;elbow=vertical;curved=0;rounded=0;" edge="1" parent="1">
          <mxGeometry width="60" relative="1" as="geometry">
            <mxPoint x="428" y="450" as="sourcePoint" />
            <mxPoint x="603" y="450" as="targetPoint" />
          </mxGeometry>
        </mxCell>
        <mxCell id="ccA4-2zpXpTMtwHoKvW6-28" value="hapus data gejala" style="html=1;verticalAlign=bottom;startArrow=oval;startFill=1;endArrow=block;startSize=8;edgeStyle=elbowEdgeStyle;elbow=vertical;curved=0;rounded=0;" edge="1" parent="1">
          <mxGeometry width="60" relative="1" as="geometry">
            <mxPoint x="617" y="480" as="sourcePoint" />
            <mxPoint x="783" y="480" as="targetPoint" />
          </mxGeometry>
        </mxCell>
        <mxCell id="ccA4-2zpXpTMtwHoKvW6-30" value="edit data gejala" style="html=1;verticalAlign=bottom;startArrow=oval;startFill=1;endArrow=block;startSize=8;edgeStyle=elbowEdgeStyle;elbow=vertical;curved=0;rounded=0;" edge="1" parent="1">
          <mxGeometry width="60" relative="1" as="geometry">
            <mxPoint x="620" y="350" as="sourcePoint" />
            <mxPoint x="786" y="350" as="targetPoint" />
          </mxGeometry>
        </mxCell>
        <mxCell id="ccA4-2zpXpTMtwHoKvW6-31" value="delete data gejala" style="html=1;verticalAlign=bottom;startArrow=oval;startFill=1;endArrow=block;startSize=8;edgeStyle=elbowEdgeStyle;elbow=vertical;curved=0;rounded=0;exitX=1.2;exitY=0.563;exitDx=0;exitDy=0;exitPerimeter=0;" edge="1" parent="1">
          <mxGeometry width="60" relative="1" as="geometry">
            <mxPoint x="800" y="499" as="sourcePoint" />
            <mxPoint x="973" y="499" as="targetPoint" />
          </mxGeometry>
        </mxCell>
        <mxCell id="ccA4-2zpXpTMtwHoKvW6-32" value="update data gejala" style="html=1;verticalAlign=bottom;startArrow=oval;startFill=1;endArrow=block;startSize=8;edgeStyle=elbowEdgeStyle;elbow=vertical;curved=0;rounded=0;exitX=1.2;exitY=0.563;exitDx=0;exitDy=0;exitPerimeter=0;" edge="1" parent="1">
          <mxGeometry width="60" relative="1" as="geometry">
            <mxPoint x="795" y="373" as="sourcePoint" />
            <mxPoint x="968" y="373" as="targetPoint" />
          </mxGeometry>
        </mxCell>
        <mxCell id="ccA4-2zpXpTMtwHoKvW6-33" value="hasil hapus data" style="html=1;verticalAlign=bottom;endArrow=open;dashed=1;endSize=8;edgeStyle=elbowEdgeStyle;elbow=vertical;curved=0;rounded=0;exitX=-0.2;exitY=0.775;exitDx=0;exitDy=0;exitPerimeter=0;" edge="1" parent="1">
          <mxGeometry relative="1" as="geometry">
            <mxPoint x="963" y="530" as="sourcePoint" />
            <mxPoint x="420" y="530" as="targetPoint" />
          </mxGeometry>
        </mxCell>
        <mxCell id="ccA4-2zpXpTMtwHoKvW6-34" value="hasil edit data" style="html=1;verticalAlign=bottom;endArrow=open;dashed=1;endSize=8;edgeStyle=elbowEdgeStyle;elbow=vertical;curved=0;rounded=0;exitX=-0.2;exitY=0.775;exitDx=0;exitDy=0;exitPerimeter=0;" edge="1" parent="1" target="ccA4-2zpXpTMtwHoKvW6-6">
          <mxGeometry relative="1" as="geometry">
            <mxPoint x="963" y="400" as="sourcePoint" />
            <mxPoint x="425" y="400" as="targetPoint" />
          </mxGeometry>
        </mxCell>
        <mxCell id="ccA4-2zpXpTMtwHoKvW6-35" value="alt" style="shape=umlFrame;whiteSpace=wrap;html=1;pointerEvents=0;width=40;height=20;" vertex="1" parent="1">
          <mxGeometry x="350" y="165" width="690" height="390" as="geometry" />
        </mxCell>
        <mxCell id="ccA4-2zpXpTMtwHoKvW6-36" value="" style="line;strokeWidth=1;fillColor=none;align=left;verticalAlign=middle;spacingTop=-1;spacingLeft=3;spacingRight=3;rotatable=0;labelPosition=right;points=[];portConstraint=eastwest;strokeColor=inherit;" vertex="1" parent="1">
          <mxGeometry x="350" y="289" width="690" height="8" as="geometry" />
        </mxCell>
        <mxCell id="ccA4-2zpXpTMtwHoKvW6-37" value="" style="line;strokeWidth=1;fillColor=none;align=left;verticalAlign=middle;spacingTop=-1;spacingLeft=3;spacingRight=3;rotatable=0;labelPosition=right;points=[];portConstraint=eastwest;strokeColor=inherit;" vertex="1" parent="1">
          <mxGeometry x="350" y="420" width="690" height="8" as="geometry" />
        </mxCell>
        <mxCell id="ccA4-2zpXpTMtwHoKvW6-38" value="Else" style="text;html=1;strokeColor=none;fillColor=none;align=center;verticalAlign=middle;whiteSpace=wrap;rounded=0;" vertex="1" parent="1">
          <mxGeometry x="350" y="350" width="60" height="30" as="geometry" />
        </mxCell>
        <mxCell id="ccA4-2zpXpTMtwHoKvW6-40" value="If" style="text;html=1;strokeColor=none;fillColor=none;align=center;verticalAlign=middle;whiteSpace=wrap;rounded=0;" vertex="1" parent="1">
          <mxGeometry x="350" y="224" width="60" height="30" as="geometry" />
        </mxCell>
        <mxCell id="ccA4-2zpXpTMtwHoKvW6-41" value="If Else" style="text;html=1;strokeColor=none;fillColor=none;align=center;verticalAlign=middle;whiteSpace=wrap;rounded=0;" vertex="1" parent="1">
          <mxGeometry x="350" y="470" width="60" height="30" as="geometry" />
        </mxCell>
        <mxCell id="ccA4-2zpXpTMtwHoKvW6-42" value="frame" style="shape=umlFrame;whiteSpace=wrap;html=1;pointerEvents=0;" vertex="1" parent="1">
          <mxGeometry x="290" y="149" width="790" height="440" as="geometry" />
        </mxCell>
        <mxCell id="ccA4-2zpXpTMtwHoKvW6-44" value="Admin" style="text;html=1;strokeColor=none;fillColor=none;align=center;verticalAlign=middle;whiteSpace=wrap;rounded=0;" vertex="1" parent="1">
          <mxGeometry x="390" y="110" width="60" height="30" as="geometry" />
        </mxCell>
        <mxCell id="ccA4-2zpXpTMtwHoKvW6-45" value="Fetch()" style="text;html=1;strokeColor=none;fillColor=none;align=center;verticalAlign=middle;whiteSpace=wrap;rounded=0;" vertex="1" parent="1">
          <mxGeometry x="850" y="250" width="50" height="20" as="geometry" />
        </mxCell>
        <mxCell id="ccA4-2zpXpTMtwHoKvW6-47" value="Fetch()" style="text;html=1;strokeColor=none;fillColor=none;align=center;verticalAlign=middle;whiteSpace=wrap;rounded=0;" vertex="1" parent="1">
          <mxGeometry x="860" y="382" width="50" height="20" as="geometry" />
        </mxCell>
        <mxCell id="ccA4-2zpXpTMtwHoKvW6-48" value="Fetch()" style="text;html=1;strokeColor=none;fillColor=none;align=center;verticalAlign=middle;whiteSpace=wrap;rounded=0;" vertex="1" parent="1">
          <mxGeometry x="860" y="512" width="50" height="20" as="geometry" />
        </mxCell>
        <mxCell id="ccA4-2zpXpTMtwHoKvW6-50" value="&lt;span style=&quot;font-size: 24px;&quot;&gt;&lt;u&gt;DATA GEJALA&lt;/u&gt;&lt;/span&gt;" style="text;align=center;fontStyle=1;verticalAlign=middle;spacingLeft=3;spacingRight=3;strokeColor=none;rotatable=0;points=[[0,0.5],[1,0.5]];portConstraint=eastwest;html=1;" vertex="1" parent="1">
          <mxGeometry x="290" y="-10" width="140" height="26" as="geometry" />
        </mxCell>
        <mxCell id="ccA4-2zpXpTMtwHoKvW6-90" value="" style="shape=umlLifeline;perimeter=lifelinePerimeter;whiteSpace=wrap;html=1;container=1;dropTarget=0;collapsible=0;recursiveResize=0;outlineConnect=0;portConstraint=eastwest;newEdgeStyle={&quot;edgeStyle&quot;:&quot;elbowEdgeStyle&quot;,&quot;elbow&quot;:&quot;vertical&quot;,&quot;curved&quot;:0,&quot;rounded&quot;:0};participant=umlActor;" vertex="1" parent="1">
          <mxGeometry x="430" y="882" width="20" height="490" as="geometry" />
        </mxCell>
        <mxCell id="ccA4-2zpXpTMtwHoKvW6-91" value="" style="html=1;points=[];perimeter=orthogonalPerimeter;outlineConnect=0;targetShapes=umlLifeline;portConstraint=eastwest;newEdgeStyle={&quot;edgeStyle&quot;:&quot;elbowEdgeStyle&quot;,&quot;elbow&quot;:&quot;vertical&quot;,&quot;curved&quot;:0,&quot;rounded&quot;:0};" vertex="1" parent="ccA4-2zpXpTMtwHoKvW6-90">
          <mxGeometry x="5" y="118" width="10" height="342" as="geometry" />
        </mxCell>
        <mxCell id="ccA4-2zpXpTMtwHoKvW6-92" value=":Controller" style="shape=umlLifeline;perimeter=lifelinePerimeter;whiteSpace=wrap;html=1;container=1;dropTarget=0;collapsible=0;recursiveResize=0;outlineConnect=0;portConstraint=eastwest;newEdgeStyle={&quot;edgeStyle&quot;:&quot;elbowEdgeStyle&quot;,&quot;elbow&quot;:&quot;vertical&quot;,&quot;curved&quot;:0,&quot;rounded&quot;:0};" vertex="1" parent="1">
          <mxGeometry x="760" y="882" width="100" height="530" as="geometry" />
        </mxCell>
        <mxCell id="ccA4-2zpXpTMtwHoKvW6-93" value="" style="html=1;points=[];perimeter=orthogonalPerimeter;outlineConnect=0;targetShapes=umlLifeline;portConstraint=eastwest;newEdgeStyle={&quot;edgeStyle&quot;:&quot;elbowEdgeStyle&quot;,&quot;elbow&quot;:&quot;vertical&quot;,&quot;curved&quot;:0,&quot;rounded&quot;:0};" vertex="1" parent="ccA4-2zpXpTMtwHoKvW6-92">
          <mxGeometry x="45" y="119" width="10" height="80" as="geometry" />
        </mxCell>
        <mxCell id="ccA4-2zpXpTMtwHoKvW6-94" value="" style="html=1;points=[];perimeter=orthogonalPerimeter;outlineConnect=0;targetShapes=umlLifeline;portConstraint=eastwest;newEdgeStyle={&quot;edgeStyle&quot;:&quot;elbowEdgeStyle&quot;,&quot;elbow&quot;:&quot;vertical&quot;,&quot;curved&quot;:0,&quot;rounded&quot;:0};" vertex="1" parent="ccA4-2zpXpTMtwHoKvW6-92">
          <mxGeometry x="45" y="251" width="10" height="80" as="geometry" />
        </mxCell>
        <mxCell id="ccA4-2zpXpTMtwHoKvW6-95" value="" style="html=1;points=[];perimeter=orthogonalPerimeter;outlineConnect=0;targetShapes=umlLifeline;portConstraint=eastwest;newEdgeStyle={&quot;edgeStyle&quot;:&quot;elbowEdgeStyle&quot;,&quot;elbow&quot;:&quot;vertical&quot;,&quot;curved&quot;:0,&quot;rounded&quot;:0};" vertex="1" parent="ccA4-2zpXpTMtwHoKvW6-92">
          <mxGeometry x="45" y="381" width="10" height="80" as="geometry" />
        </mxCell>
        <mxCell id="ccA4-2zpXpTMtwHoKvW6-96" value=":view" style="shape=umlLifeline;perimeter=lifelinePerimeter;whiteSpace=wrap;html=1;container=1;dropTarget=0;collapsible=0;recursiveResize=0;outlineConnect=0;portConstraint=eastwest;newEdgeStyle={&quot;edgeStyle&quot;:&quot;elbowEdgeStyle&quot;,&quot;elbow&quot;:&quot;vertical&quot;,&quot;curved&quot;:0,&quot;rounded&quot;:0};" vertex="1" parent="1">
          <mxGeometry x="580" y="878" width="100" height="500" as="geometry" />
        </mxCell>
        <mxCell id="ccA4-2zpXpTMtwHoKvW6-97" value="" style="html=1;points=[];perimeter=orthogonalPerimeter;outlineConnect=0;targetShapes=umlLifeline;portConstraint=eastwest;newEdgeStyle={&quot;edgeStyle&quot;:&quot;elbowEdgeStyle&quot;,&quot;elbow&quot;:&quot;vertical&quot;,&quot;curved&quot;:0,&quot;rounded&quot;:0};" vertex="1" parent="ccA4-2zpXpTMtwHoKvW6-96">
          <mxGeometry x="44" y="125" width="10" height="80" as="geometry" />
        </mxCell>
        <mxCell id="ccA4-2zpXpTMtwHoKvW6-98" value="" style="html=1;points=[];perimeter=orthogonalPerimeter;outlineConnect=0;targetShapes=umlLifeline;portConstraint=eastwest;newEdgeStyle={&quot;edgeStyle&quot;:&quot;elbowEdgeStyle&quot;,&quot;elbow&quot;:&quot;vertical&quot;,&quot;curved&quot;:0,&quot;rounded&quot;:0};" vertex="1" parent="ccA4-2zpXpTMtwHoKvW6-96">
          <mxGeometry x="44" y="254" width="10" height="80" as="geometry" />
        </mxCell>
        <mxCell id="ccA4-2zpXpTMtwHoKvW6-99" value="" style="html=1;points=[];perimeter=orthogonalPerimeter;outlineConnect=0;targetShapes=umlLifeline;portConstraint=eastwest;newEdgeStyle={&quot;edgeStyle&quot;:&quot;elbowEdgeStyle&quot;,&quot;elbow&quot;:&quot;vertical&quot;,&quot;curved&quot;:0,&quot;rounded&quot;:0};" vertex="1" parent="ccA4-2zpXpTMtwHoKvW6-96">
          <mxGeometry x="44" y="384" width="10" height="80" as="geometry" />
        </mxCell>
        <mxCell id="ccA4-2zpXpTMtwHoKvW6-100" value=":Database" style="shape=umlLifeline;perimeter=lifelinePerimeter;whiteSpace=wrap;html=1;container=1;dropTarget=0;collapsible=0;recursiveResize=0;outlineConnect=0;portConstraint=eastwest;newEdgeStyle={&quot;edgeStyle&quot;:&quot;elbowEdgeStyle&quot;,&quot;elbow&quot;:&quot;vertical&quot;,&quot;curved&quot;:0,&quot;rounded&quot;:0};" vertex="1" parent="1">
          <mxGeometry x="940" y="881" width="100" height="500" as="geometry" />
        </mxCell>
        <mxCell id="ccA4-2zpXpTMtwHoKvW6-101" value="" style="html=1;points=[];perimeter=orthogonalPerimeter;outlineConnect=0;targetShapes=umlLifeline;portConstraint=eastwest;newEdgeStyle={&quot;edgeStyle&quot;:&quot;elbowEdgeStyle&quot;,&quot;elbow&quot;:&quot;vertical&quot;,&quot;curved&quot;:0,&quot;rounded&quot;:0};" vertex="1" parent="ccA4-2zpXpTMtwHoKvW6-100">
          <mxGeometry x="45" y="119" width="10" height="80" as="geometry" />
        </mxCell>
        <mxCell id="ccA4-2zpXpTMtwHoKvW6-102" value="" style="html=1;points=[];perimeter=orthogonalPerimeter;outlineConnect=0;targetShapes=umlLifeline;portConstraint=eastwest;newEdgeStyle={&quot;edgeStyle&quot;:&quot;elbowEdgeStyle&quot;,&quot;elbow&quot;:&quot;vertical&quot;,&quot;curved&quot;:0,&quot;rounded&quot;:0};" vertex="1" parent="ccA4-2zpXpTMtwHoKvW6-100">
          <mxGeometry x="45" y="250" width="10" height="80" as="geometry" />
        </mxCell>
        <mxCell id="ccA4-2zpXpTMtwHoKvW6-103" value="" style="html=1;points=[];perimeter=orthogonalPerimeter;outlineConnect=0;targetShapes=umlLifeline;portConstraint=eastwest;newEdgeStyle={&quot;edgeStyle&quot;:&quot;elbowEdgeStyle&quot;,&quot;elbow&quot;:&quot;vertical&quot;,&quot;curved&quot;:0,&quot;rounded&quot;:0};" vertex="1" parent="ccA4-2zpXpTMtwHoKvW6-100">
          <mxGeometry x="45" y="379" width="10" height="80" as="geometry" />
        </mxCell>
        <mxCell id="ccA4-2zpXpTMtwHoKvW6-104" value="button tambah penyakit" style="html=1;verticalAlign=bottom;startArrow=oval;startFill=1;endArrow=block;startSize=8;edgeStyle=elbowEdgeStyle;elbow=vertical;curved=0;rounded=0;" edge="1" parent="1" source="ccA4-2zpXpTMtwHoKvW6-91">
          <mxGeometry width="60" relative="1" as="geometry">
            <mxPoint x="450" y="1006" as="sourcePoint" />
            <mxPoint x="620" y="1002" as="targetPoint" />
          </mxGeometry>
        </mxCell>
        <mxCell id="ccA4-2zpXpTMtwHoKvW6-105" value="tambah data penyakit" style="html=1;verticalAlign=bottom;startArrow=oval;startFill=1;endArrow=block;startSize=8;edgeStyle=elbowEdgeStyle;elbow=vertical;curved=0;rounded=0;" edge="1" parent="1">
          <mxGeometry width="60" relative="1" as="geometry">
            <mxPoint x="634" y="1035" as="sourcePoint" />
            <mxPoint x="800" y="1035" as="targetPoint" />
          </mxGeometry>
        </mxCell>
        <mxCell id="ccA4-2zpXpTMtwHoKvW6-106" value="insert data penyakit" style="html=1;verticalAlign=bottom;startArrow=oval;startFill=1;endArrow=block;startSize=8;edgeStyle=elbowEdgeStyle;elbow=vertical;curved=0;rounded=0;exitX=1.2;exitY=0.563;exitDx=0;exitDy=0;exitPerimeter=0;" edge="1" parent="1" source="ccA4-2zpXpTMtwHoKvW6-93" target="ccA4-2zpXpTMtwHoKvW6-100">
          <mxGeometry width="60" relative="1" as="geometry">
            <mxPoint x="860" y="1102" as="sourcePoint" />
            <mxPoint x="920" y="1102" as="targetPoint" />
          </mxGeometry>
        </mxCell>
        <mxCell id="ccA4-2zpXpTMtwHoKvW6-107" value="hasil pencarian data" style="html=1;verticalAlign=bottom;endArrow=open;dashed=1;endSize=8;edgeStyle=elbowEdgeStyle;elbow=vertical;curved=0;rounded=0;exitX=-0.2;exitY=0.775;exitDx=0;exitDy=0;exitPerimeter=0;" edge="1" parent="1">
          <mxGeometry relative="1" as="geometry">
            <mxPoint x="983" y="1082" as="sourcePoint" />
            <mxPoint x="445" y="1082" as="targetPoint" />
          </mxGeometry>
        </mxCell>
        <mxCell id="ccA4-2zpXpTMtwHoKvW6-108" value="button edit penyakit" style="html=1;verticalAlign=bottom;startArrow=oval;startFill=1;endArrow=block;startSize=8;edgeStyle=elbowEdgeStyle;elbow=vertical;curved=0;rounded=0;" edge="1" parent="1">
          <mxGeometry width="60" relative="1" as="geometry">
            <mxPoint x="447" y="1133" as="sourcePoint" />
            <mxPoint x="622" y="1133" as="targetPoint" />
          </mxGeometry>
        </mxCell>
        <mxCell id="ccA4-2zpXpTMtwHoKvW6-109" value="button data penyakit" style="html=1;verticalAlign=bottom;startArrow=oval;startFill=1;endArrow=block;startSize=8;edgeStyle=elbowEdgeStyle;elbow=vertical;curved=0;rounded=0;" edge="1" parent="1">
          <mxGeometry width="60" relative="1" as="geometry">
            <mxPoint x="448" y="1262" as="sourcePoint" />
            <mxPoint x="623" y="1262" as="targetPoint" />
          </mxGeometry>
        </mxCell>
        <mxCell id="ccA4-2zpXpTMtwHoKvW6-110" value="hapus data penyakit" style="html=1;verticalAlign=bottom;startArrow=oval;startFill=1;endArrow=block;startSize=8;edgeStyle=elbowEdgeStyle;elbow=vertical;curved=0;rounded=0;" edge="1" parent="1">
          <mxGeometry width="60" relative="1" as="geometry">
            <mxPoint x="637" y="1292" as="sourcePoint" />
            <mxPoint x="803" y="1292" as="targetPoint" />
          </mxGeometry>
        </mxCell>
        <mxCell id="ccA4-2zpXpTMtwHoKvW6-111" value="edit data penyakit" style="html=1;verticalAlign=bottom;startArrow=oval;startFill=1;endArrow=block;startSize=8;edgeStyle=elbowEdgeStyle;elbow=vertical;curved=0;rounded=0;" edge="1" parent="1">
          <mxGeometry width="60" relative="1" as="geometry">
            <mxPoint x="640" y="1162" as="sourcePoint" />
            <mxPoint x="806" y="1162" as="targetPoint" />
          </mxGeometry>
        </mxCell>
        <mxCell id="ccA4-2zpXpTMtwHoKvW6-112" value="delete data penyakit" style="html=1;verticalAlign=bottom;startArrow=oval;startFill=1;endArrow=block;startSize=8;edgeStyle=elbowEdgeStyle;elbow=vertical;curved=0;rounded=0;exitX=1.2;exitY=0.563;exitDx=0;exitDy=0;exitPerimeter=0;" edge="1" parent="1">
          <mxGeometry width="60" relative="1" as="geometry">
            <mxPoint x="820" y="1311" as="sourcePoint" />
            <mxPoint x="993" y="1311" as="targetPoint" />
          </mxGeometry>
        </mxCell>
        <mxCell id="ccA4-2zpXpTMtwHoKvW6-113" value="update data penyakit" style="html=1;verticalAlign=bottom;startArrow=oval;startFill=1;endArrow=block;startSize=8;edgeStyle=elbowEdgeStyle;elbow=vertical;curved=0;rounded=0;exitX=1.2;exitY=0.563;exitDx=0;exitDy=0;exitPerimeter=0;" edge="1" parent="1">
          <mxGeometry width="60" relative="1" as="geometry">
            <mxPoint x="815" y="1185" as="sourcePoint" />
            <mxPoint x="988" y="1185" as="targetPoint" />
          </mxGeometry>
        </mxCell>
        <mxCell id="ccA4-2zpXpTMtwHoKvW6-114" value="hasil hapus data" style="html=1;verticalAlign=bottom;endArrow=open;dashed=1;endSize=8;edgeStyle=elbowEdgeStyle;elbow=vertical;curved=0;rounded=0;exitX=-0.2;exitY=0.775;exitDx=0;exitDy=0;exitPerimeter=0;" edge="1" parent="1" target="ccA4-2zpXpTMtwHoKvW6-90">
          <mxGeometry relative="1" as="geometry">
            <mxPoint x="983" y="1342" as="sourcePoint" />
            <mxPoint x="485" y="1341.5263157894738" as="targetPoint" />
          </mxGeometry>
        </mxCell>
        <mxCell id="ccA4-2zpXpTMtwHoKvW6-115" value="hasil edit data" style="html=1;verticalAlign=bottom;endArrow=open;dashed=1;endSize=8;edgeStyle=elbowEdgeStyle;elbow=vertical;curved=0;rounded=0;exitX=-0.2;exitY=0.775;exitDx=0;exitDy=0;exitPerimeter=0;" edge="1" parent="1" target="ccA4-2zpXpTMtwHoKvW6-91">
          <mxGeometry relative="1" as="geometry">
            <mxPoint x="983" y="1212" as="sourcePoint" />
            <mxPoint x="445" y="1212" as="targetPoint" />
          </mxGeometry>
        </mxCell>
        <mxCell id="ccA4-2zpXpTMtwHoKvW6-116" value="alt" style="shape=umlFrame;whiteSpace=wrap;html=1;pointerEvents=0;width=40;height=20;" vertex="1" parent="1">
          <mxGeometry x="370" y="977" width="690" height="390" as="geometry" />
        </mxCell>
        <mxCell id="ccA4-2zpXpTMtwHoKvW6-117" value="" style="line;strokeWidth=1;fillColor=none;align=left;verticalAlign=middle;spacingTop=-1;spacingLeft=3;spacingRight=3;rotatable=0;labelPosition=right;points=[];portConstraint=eastwest;strokeColor=inherit;" vertex="1" parent="1">
          <mxGeometry x="370" y="1101" width="690" height="8" as="geometry" />
        </mxCell>
        <mxCell id="ccA4-2zpXpTMtwHoKvW6-118" value="" style="line;strokeWidth=1;fillColor=none;align=left;verticalAlign=middle;spacingTop=-1;spacingLeft=3;spacingRight=3;rotatable=0;labelPosition=right;points=[];portConstraint=eastwest;strokeColor=inherit;" vertex="1" parent="1">
          <mxGeometry x="370" y="1232" width="690" height="8" as="geometry" />
        </mxCell>
        <mxCell id="ccA4-2zpXpTMtwHoKvW6-119" value="Else" style="text;html=1;strokeColor=none;fillColor=none;align=center;verticalAlign=middle;whiteSpace=wrap;rounded=0;" vertex="1" parent="1">
          <mxGeometry x="370" y="1162" width="60" height="30" as="geometry" />
        </mxCell>
        <mxCell id="ccA4-2zpXpTMtwHoKvW6-120" value="If" style="text;html=1;strokeColor=none;fillColor=none;align=center;verticalAlign=middle;whiteSpace=wrap;rounded=0;" vertex="1" parent="1">
          <mxGeometry x="370" y="1036" width="60" height="30" as="geometry" />
        </mxCell>
        <mxCell id="ccA4-2zpXpTMtwHoKvW6-121" value="If Else" style="text;html=1;strokeColor=none;fillColor=none;align=center;verticalAlign=middle;whiteSpace=wrap;rounded=0;" vertex="1" parent="1">
          <mxGeometry x="370" y="1282" width="60" height="30" as="geometry" />
        </mxCell>
        <mxCell id="ccA4-2zpXpTMtwHoKvW6-122" value="frame" style="shape=umlFrame;whiteSpace=wrap;html=1;pointerEvents=0;" vertex="1" parent="1">
          <mxGeometry x="310" y="961" width="790" height="440" as="geometry" />
        </mxCell>
        <mxCell id="ccA4-2zpXpTMtwHoKvW6-123" value="Admin" style="text;html=1;strokeColor=none;fillColor=none;align=center;verticalAlign=middle;whiteSpace=wrap;rounded=0;" vertex="1" parent="1">
          <mxGeometry x="410" y="922" width="60" height="30" as="geometry" />
        </mxCell>
        <mxCell id="ccA4-2zpXpTMtwHoKvW6-124" value="Fetch()" style="text;html=1;strokeColor=none;fillColor=none;align=center;verticalAlign=middle;whiteSpace=wrap;rounded=0;" vertex="1" parent="1">
          <mxGeometry x="870" y="1062" width="50" height="20" as="geometry" />
        </mxCell>
        <mxCell id="ccA4-2zpXpTMtwHoKvW6-125" value="Fetch()" style="text;html=1;strokeColor=none;fillColor=none;align=center;verticalAlign=middle;whiteSpace=wrap;rounded=0;" vertex="1" parent="1">
          <mxGeometry x="880" y="1194" width="50" height="20" as="geometry" />
        </mxCell>
        <mxCell id="ccA4-2zpXpTMtwHoKvW6-126" value="Fetch()" style="text;html=1;strokeColor=none;fillColor=none;align=center;verticalAlign=middle;whiteSpace=wrap;rounded=0;" vertex="1" parent="1">
          <mxGeometry x="880" y="1324" width="50" height="20" as="geometry" />
        </mxCell>
        <mxCell id="ccA4-2zpXpTMtwHoKvW6-128" value="&lt;span style=&quot;font-size: 24px;&quot;&gt;&lt;u&gt;DATA PENYAKIT&lt;/u&gt;&lt;/span&gt;" style="text;align=center;fontStyle=1;verticalAlign=middle;spacingLeft=3;spacingRight=3;strokeColor=none;rotatable=0;points=[[0,0.5],[1,0.5]];portConstraint=eastwest;html=1;" vertex="1" parent="1">
          <mxGeometry x="310" y="802" width="140" height="26" as="geometry" />
        </mxCell>
        <mxCell id="ccA4-2zpXpTMtwHoKvW6-129" value="" style="shape=umlLifeline;perimeter=lifelinePerimeter;whiteSpace=wrap;html=1;container=1;dropTarget=0;collapsible=0;recursiveResize=0;outlineConnect=0;portConstraint=eastwest;newEdgeStyle={&quot;edgeStyle&quot;:&quot;elbowEdgeStyle&quot;,&quot;elbow&quot;:&quot;vertical&quot;,&quot;curved&quot;:0,&quot;rounded&quot;:0};participant=umlActor;" vertex="1" parent="1">
          <mxGeometry x="440" y="1608" width="20" height="490" as="geometry" />
        </mxCell>
        <mxCell id="ccA4-2zpXpTMtwHoKvW6-130" value="" style="html=1;points=[];perimeter=orthogonalPerimeter;outlineConnect=0;targetShapes=umlLifeline;portConstraint=eastwest;newEdgeStyle={&quot;edgeStyle&quot;:&quot;elbowEdgeStyle&quot;,&quot;elbow&quot;:&quot;vertical&quot;,&quot;curved&quot;:0,&quot;rounded&quot;:0};" vertex="1" parent="ccA4-2zpXpTMtwHoKvW6-129">
          <mxGeometry x="5" y="118" width="10" height="340" as="geometry" />
        </mxCell>
        <mxCell id="ccA4-2zpXpTMtwHoKvW6-131" value=":Controller" style="shape=umlLifeline;perimeter=lifelinePerimeter;whiteSpace=wrap;html=1;container=1;dropTarget=0;collapsible=0;recursiveResize=0;outlineConnect=0;portConstraint=eastwest;newEdgeStyle={&quot;edgeStyle&quot;:&quot;elbowEdgeStyle&quot;,&quot;elbow&quot;:&quot;vertical&quot;,&quot;curved&quot;:0,&quot;rounded&quot;:0};" vertex="1" parent="1">
          <mxGeometry x="770" y="1608" width="100" height="530" as="geometry" />
        </mxCell>
        <mxCell id="ccA4-2zpXpTMtwHoKvW6-132" value="" style="html=1;points=[];perimeter=orthogonalPerimeter;outlineConnect=0;targetShapes=umlLifeline;portConstraint=eastwest;newEdgeStyle={&quot;edgeStyle&quot;:&quot;elbowEdgeStyle&quot;,&quot;elbow&quot;:&quot;vertical&quot;,&quot;curved&quot;:0,&quot;rounded&quot;:0};" vertex="1" parent="ccA4-2zpXpTMtwHoKvW6-131">
          <mxGeometry x="45" y="119" width="10" height="80" as="geometry" />
        </mxCell>
        <mxCell id="ccA4-2zpXpTMtwHoKvW6-133" value="" style="html=1;points=[];perimeter=orthogonalPerimeter;outlineConnect=0;targetShapes=umlLifeline;portConstraint=eastwest;newEdgeStyle={&quot;edgeStyle&quot;:&quot;elbowEdgeStyle&quot;,&quot;elbow&quot;:&quot;vertical&quot;,&quot;curved&quot;:0,&quot;rounded&quot;:0};" vertex="1" parent="ccA4-2zpXpTMtwHoKvW6-131">
          <mxGeometry x="45" y="251" width="10" height="80" as="geometry" />
        </mxCell>
        <mxCell id="ccA4-2zpXpTMtwHoKvW6-134" value="" style="html=1;points=[];perimeter=orthogonalPerimeter;outlineConnect=0;targetShapes=umlLifeline;portConstraint=eastwest;newEdgeStyle={&quot;edgeStyle&quot;:&quot;elbowEdgeStyle&quot;,&quot;elbow&quot;:&quot;vertical&quot;,&quot;curved&quot;:0,&quot;rounded&quot;:0};" vertex="1" parent="ccA4-2zpXpTMtwHoKvW6-131">
          <mxGeometry x="45" y="381" width="10" height="80" as="geometry" />
        </mxCell>
        <mxCell id="ccA4-2zpXpTMtwHoKvW6-135" value=":view" style="shape=umlLifeline;perimeter=lifelinePerimeter;whiteSpace=wrap;html=1;container=1;dropTarget=0;collapsible=0;recursiveResize=0;outlineConnect=0;portConstraint=eastwest;newEdgeStyle={&quot;edgeStyle&quot;:&quot;elbowEdgeStyle&quot;,&quot;elbow&quot;:&quot;vertical&quot;,&quot;curved&quot;:0,&quot;rounded&quot;:0};" vertex="1" parent="1">
          <mxGeometry x="590" y="1604" width="100" height="500" as="geometry" />
        </mxCell>
        <mxCell id="ccA4-2zpXpTMtwHoKvW6-136" value="" style="html=1;points=[];perimeter=orthogonalPerimeter;outlineConnect=0;targetShapes=umlLifeline;portConstraint=eastwest;newEdgeStyle={&quot;edgeStyle&quot;:&quot;elbowEdgeStyle&quot;,&quot;elbow&quot;:&quot;vertical&quot;,&quot;curved&quot;:0,&quot;rounded&quot;:0};" vertex="1" parent="ccA4-2zpXpTMtwHoKvW6-135">
          <mxGeometry x="44" y="125" width="10" height="80" as="geometry" />
        </mxCell>
        <mxCell id="ccA4-2zpXpTMtwHoKvW6-137" value="" style="html=1;points=[];perimeter=orthogonalPerimeter;outlineConnect=0;targetShapes=umlLifeline;portConstraint=eastwest;newEdgeStyle={&quot;edgeStyle&quot;:&quot;elbowEdgeStyle&quot;,&quot;elbow&quot;:&quot;vertical&quot;,&quot;curved&quot;:0,&quot;rounded&quot;:0};" vertex="1" parent="ccA4-2zpXpTMtwHoKvW6-135">
          <mxGeometry x="44" y="254" width="10" height="80" as="geometry" />
        </mxCell>
        <mxCell id="ccA4-2zpXpTMtwHoKvW6-138" value="" style="html=1;points=[];perimeter=orthogonalPerimeter;outlineConnect=0;targetShapes=umlLifeline;portConstraint=eastwest;newEdgeStyle={&quot;edgeStyle&quot;:&quot;elbowEdgeStyle&quot;,&quot;elbow&quot;:&quot;vertical&quot;,&quot;curved&quot;:0,&quot;rounded&quot;:0};" vertex="1" parent="ccA4-2zpXpTMtwHoKvW6-135">
          <mxGeometry x="44" y="384" width="10" height="80" as="geometry" />
        </mxCell>
        <mxCell id="ccA4-2zpXpTMtwHoKvW6-139" value=":Database" style="shape=umlLifeline;perimeter=lifelinePerimeter;whiteSpace=wrap;html=1;container=1;dropTarget=0;collapsible=0;recursiveResize=0;outlineConnect=0;portConstraint=eastwest;newEdgeStyle={&quot;edgeStyle&quot;:&quot;elbowEdgeStyle&quot;,&quot;elbow&quot;:&quot;vertical&quot;,&quot;curved&quot;:0,&quot;rounded&quot;:0};" vertex="1" parent="1">
          <mxGeometry x="950" y="1607" width="100" height="500" as="geometry" />
        </mxCell>
        <mxCell id="ccA4-2zpXpTMtwHoKvW6-140" value="" style="html=1;points=[];perimeter=orthogonalPerimeter;outlineConnect=0;targetShapes=umlLifeline;portConstraint=eastwest;newEdgeStyle={&quot;edgeStyle&quot;:&quot;elbowEdgeStyle&quot;,&quot;elbow&quot;:&quot;vertical&quot;,&quot;curved&quot;:0,&quot;rounded&quot;:0};" vertex="1" parent="ccA4-2zpXpTMtwHoKvW6-139">
          <mxGeometry x="45" y="119" width="10" height="80" as="geometry" />
        </mxCell>
        <mxCell id="ccA4-2zpXpTMtwHoKvW6-141" value="" style="html=1;points=[];perimeter=orthogonalPerimeter;outlineConnect=0;targetShapes=umlLifeline;portConstraint=eastwest;newEdgeStyle={&quot;edgeStyle&quot;:&quot;elbowEdgeStyle&quot;,&quot;elbow&quot;:&quot;vertical&quot;,&quot;curved&quot;:0,&quot;rounded&quot;:0};" vertex="1" parent="ccA4-2zpXpTMtwHoKvW6-139">
          <mxGeometry x="45" y="250" width="10" height="80" as="geometry" />
        </mxCell>
        <mxCell id="ccA4-2zpXpTMtwHoKvW6-142" value="" style="html=1;points=[];perimeter=orthogonalPerimeter;outlineConnect=0;targetShapes=umlLifeline;portConstraint=eastwest;newEdgeStyle={&quot;edgeStyle&quot;:&quot;elbowEdgeStyle&quot;,&quot;elbow&quot;:&quot;vertical&quot;,&quot;curved&quot;:0,&quot;rounded&quot;:0};" vertex="1" parent="ccA4-2zpXpTMtwHoKvW6-139">
          <mxGeometry x="45" y="379" width="10" height="80" as="geometry" />
        </mxCell>
        <mxCell id="ccA4-2zpXpTMtwHoKvW6-143" value="button tambah rule" style="html=1;verticalAlign=bottom;startArrow=oval;startFill=1;endArrow=block;startSize=8;edgeStyle=elbowEdgeStyle;elbow=vertical;curved=0;rounded=0;" edge="1" parent="1" source="ccA4-2zpXpTMtwHoKvW6-130">
          <mxGeometry width="60" relative="1" as="geometry">
            <mxPoint x="460" y="1732" as="sourcePoint" />
            <mxPoint x="630" y="1728" as="targetPoint" />
          </mxGeometry>
        </mxCell>
        <mxCell id="ccA4-2zpXpTMtwHoKvW6-144" value="tambah data rule" style="html=1;verticalAlign=bottom;startArrow=oval;startFill=1;endArrow=block;startSize=8;edgeStyle=elbowEdgeStyle;elbow=vertical;curved=0;rounded=0;" edge="1" parent="1">
          <mxGeometry width="60" relative="1" as="geometry">
            <mxPoint x="644" y="1761" as="sourcePoint" />
            <mxPoint x="810" y="1761" as="targetPoint" />
          </mxGeometry>
        </mxCell>
        <mxCell id="ccA4-2zpXpTMtwHoKvW6-145" value="insert data rule" style="html=1;verticalAlign=bottom;startArrow=oval;startFill=1;endArrow=block;startSize=8;edgeStyle=elbowEdgeStyle;elbow=vertical;curved=0;rounded=0;exitX=1.2;exitY=0.563;exitDx=0;exitDy=0;exitPerimeter=0;" edge="1" parent="1" source="ccA4-2zpXpTMtwHoKvW6-132" target="ccA4-2zpXpTMtwHoKvW6-139">
          <mxGeometry width="60" relative="1" as="geometry">
            <mxPoint x="870" y="1828" as="sourcePoint" />
            <mxPoint x="930" y="1828" as="targetPoint" />
          </mxGeometry>
        </mxCell>
        <mxCell id="ccA4-2zpXpTMtwHoKvW6-146" value="hasil pencarian data" style="html=1;verticalAlign=bottom;endArrow=open;dashed=1;endSize=8;edgeStyle=elbowEdgeStyle;elbow=vertical;curved=0;rounded=0;exitX=-0.2;exitY=0.775;exitDx=0;exitDy=0;exitPerimeter=0;" edge="1" parent="1">
          <mxGeometry relative="1" as="geometry">
            <mxPoint x="993" y="1808" as="sourcePoint" />
            <mxPoint x="455" y="1808" as="targetPoint" />
          </mxGeometry>
        </mxCell>
        <mxCell id="ccA4-2zpXpTMtwHoKvW6-147" value="button edit rule" style="html=1;verticalAlign=bottom;startArrow=oval;startFill=1;endArrow=block;startSize=8;edgeStyle=elbowEdgeStyle;elbow=vertical;curved=0;rounded=0;" edge="1" parent="1">
          <mxGeometry width="60" relative="1" as="geometry">
            <mxPoint x="457" y="1859" as="sourcePoint" />
            <mxPoint x="632" y="1859" as="targetPoint" />
          </mxGeometry>
        </mxCell>
        <mxCell id="ccA4-2zpXpTMtwHoKvW6-148" value="button data rule" style="html=1;verticalAlign=bottom;startArrow=oval;startFill=1;endArrow=block;startSize=8;edgeStyle=elbowEdgeStyle;elbow=vertical;curved=0;rounded=0;" edge="1" parent="1">
          <mxGeometry width="60" relative="1" as="geometry">
            <mxPoint x="458" y="1988" as="sourcePoint" />
            <mxPoint x="633" y="1988" as="targetPoint" />
          </mxGeometry>
        </mxCell>
        <mxCell id="ccA4-2zpXpTMtwHoKvW6-149" value="hapus data rule" style="html=1;verticalAlign=bottom;startArrow=oval;startFill=1;endArrow=block;startSize=8;edgeStyle=elbowEdgeStyle;elbow=vertical;curved=0;rounded=0;" edge="1" parent="1">
          <mxGeometry width="60" relative="1" as="geometry">
            <mxPoint x="647" y="2018" as="sourcePoint" />
            <mxPoint x="813" y="2018" as="targetPoint" />
          </mxGeometry>
        </mxCell>
        <mxCell id="ccA4-2zpXpTMtwHoKvW6-150" value="edit data rule" style="html=1;verticalAlign=bottom;startArrow=oval;startFill=1;endArrow=block;startSize=8;edgeStyle=elbowEdgeStyle;elbow=vertical;curved=0;rounded=0;" edge="1" parent="1">
          <mxGeometry width="60" relative="1" as="geometry">
            <mxPoint x="650" y="1888" as="sourcePoint" />
            <mxPoint x="816" y="1888" as="targetPoint" />
          </mxGeometry>
        </mxCell>
        <mxCell id="ccA4-2zpXpTMtwHoKvW6-151" value="delete data rule" style="html=1;verticalAlign=bottom;startArrow=oval;startFill=1;endArrow=block;startSize=8;edgeStyle=elbowEdgeStyle;elbow=vertical;curved=0;rounded=0;exitX=1.2;exitY=0.563;exitDx=0;exitDy=0;exitPerimeter=0;" edge="1" parent="1">
          <mxGeometry width="60" relative="1" as="geometry">
            <mxPoint x="830" y="2037" as="sourcePoint" />
            <mxPoint x="1003" y="2037" as="targetPoint" />
          </mxGeometry>
        </mxCell>
        <mxCell id="ccA4-2zpXpTMtwHoKvW6-152" value="update data rule" style="html=1;verticalAlign=bottom;startArrow=oval;startFill=1;endArrow=block;startSize=8;edgeStyle=elbowEdgeStyle;elbow=vertical;curved=0;rounded=0;exitX=1.2;exitY=0.563;exitDx=0;exitDy=0;exitPerimeter=0;" edge="1" parent="1">
          <mxGeometry width="60" relative="1" as="geometry">
            <mxPoint x="825" y="1911" as="sourcePoint" />
            <mxPoint x="998" y="1911" as="targetPoint" />
          </mxGeometry>
        </mxCell>
        <mxCell id="ccA4-2zpXpTMtwHoKvW6-153" value="hasil hapus data" style="html=1;verticalAlign=bottom;endArrow=open;dashed=1;endSize=8;edgeStyle=elbowEdgeStyle;elbow=vertical;curved=0;rounded=0;exitX=-0.2;exitY=0.775;exitDx=0;exitDy=0;exitPerimeter=0;" edge="1" parent="1" target="ccA4-2zpXpTMtwHoKvW6-129">
          <mxGeometry relative="1" as="geometry">
            <mxPoint x="993" y="2068" as="sourcePoint" />
            <mxPoint x="495" y="2067.842105263158" as="targetPoint" />
          </mxGeometry>
        </mxCell>
        <mxCell id="ccA4-2zpXpTMtwHoKvW6-154" value="hasil edit data" style="html=1;verticalAlign=bottom;endArrow=open;dashed=1;endSize=8;edgeStyle=elbowEdgeStyle;elbow=vertical;curved=0;rounded=0;exitX=-0.2;exitY=0.775;exitDx=0;exitDy=0;exitPerimeter=0;" edge="1" parent="1" target="ccA4-2zpXpTMtwHoKvW6-130">
          <mxGeometry relative="1" as="geometry">
            <mxPoint x="993" y="1938" as="sourcePoint" />
            <mxPoint x="455" y="1938" as="targetPoint" />
          </mxGeometry>
        </mxCell>
        <mxCell id="ccA4-2zpXpTMtwHoKvW6-155" value="alt" style="shape=umlFrame;whiteSpace=wrap;html=1;pointerEvents=0;width=40;height=20;" vertex="1" parent="1">
          <mxGeometry x="380" y="1703" width="690" height="390" as="geometry" />
        </mxCell>
        <mxCell id="ccA4-2zpXpTMtwHoKvW6-156" value="" style="line;strokeWidth=1;fillColor=none;align=left;verticalAlign=middle;spacingTop=-1;spacingLeft=3;spacingRight=3;rotatable=0;labelPosition=right;points=[];portConstraint=eastwest;strokeColor=inherit;" vertex="1" parent="1">
          <mxGeometry x="380" y="1827" width="690" height="8" as="geometry" />
        </mxCell>
        <mxCell id="ccA4-2zpXpTMtwHoKvW6-157" value="" style="line;strokeWidth=1;fillColor=none;align=left;verticalAlign=middle;spacingTop=-1;spacingLeft=3;spacingRight=3;rotatable=0;labelPosition=right;points=[];portConstraint=eastwest;strokeColor=inherit;" vertex="1" parent="1">
          <mxGeometry x="380" y="1958" width="690" height="8" as="geometry" />
        </mxCell>
        <mxCell id="ccA4-2zpXpTMtwHoKvW6-158" value="Else" style="text;html=1;strokeColor=none;fillColor=none;align=center;verticalAlign=middle;whiteSpace=wrap;rounded=0;" vertex="1" parent="1">
          <mxGeometry x="380" y="1888" width="60" height="30" as="geometry" />
        </mxCell>
        <mxCell id="ccA4-2zpXpTMtwHoKvW6-159" value="If" style="text;html=1;strokeColor=none;fillColor=none;align=center;verticalAlign=middle;whiteSpace=wrap;rounded=0;" vertex="1" parent="1">
          <mxGeometry x="380" y="1762" width="60" height="30" as="geometry" />
        </mxCell>
        <mxCell id="ccA4-2zpXpTMtwHoKvW6-160" value="If Else" style="text;html=1;strokeColor=none;fillColor=none;align=center;verticalAlign=middle;whiteSpace=wrap;rounded=0;" vertex="1" parent="1">
          <mxGeometry x="380" y="2008" width="60" height="30" as="geometry" />
        </mxCell>
        <mxCell id="ccA4-2zpXpTMtwHoKvW6-161" value="frame" style="shape=umlFrame;whiteSpace=wrap;html=1;pointerEvents=0;" vertex="1" parent="1">
          <mxGeometry x="320" y="1687" width="790" height="440" as="geometry" />
        </mxCell>
        <mxCell id="ccA4-2zpXpTMtwHoKvW6-162" value="Admin" style="text;html=1;strokeColor=none;fillColor=none;align=center;verticalAlign=middle;whiteSpace=wrap;rounded=0;" vertex="1" parent="1">
          <mxGeometry x="420" y="1648" width="60" height="30" as="geometry" />
        </mxCell>
        <mxCell id="ccA4-2zpXpTMtwHoKvW6-163" value="Fetch()" style="text;html=1;strokeColor=none;fillColor=none;align=center;verticalAlign=middle;whiteSpace=wrap;rounded=0;" vertex="1" parent="1">
          <mxGeometry x="880" y="1788" width="50" height="20" as="geometry" />
        </mxCell>
        <mxCell id="ccA4-2zpXpTMtwHoKvW6-164" value="Fetch()" style="text;html=1;strokeColor=none;fillColor=none;align=center;verticalAlign=middle;whiteSpace=wrap;rounded=0;" vertex="1" parent="1">
          <mxGeometry x="890" y="1920" width="50" height="20" as="geometry" />
        </mxCell>
        <mxCell id="ccA4-2zpXpTMtwHoKvW6-165" value="Fetch()" style="text;html=1;strokeColor=none;fillColor=none;align=center;verticalAlign=middle;whiteSpace=wrap;rounded=0;" vertex="1" parent="1">
          <mxGeometry x="890" y="2050" width="50" height="20" as="geometry" />
        </mxCell>
        <mxCell id="ccA4-2zpXpTMtwHoKvW6-167" value="&lt;span style=&quot;font-size: 24px;&quot;&gt;&lt;u&gt;DATA RULE&lt;/u&gt;&lt;/span&gt;" style="text;align=center;fontStyle=1;verticalAlign=middle;spacingLeft=3;spacingRight=3;strokeColor=none;rotatable=0;points=[[0,0.5],[1,0.5]];portConstraint=eastwest;html=1;" vertex="1" parent="1">
          <mxGeometry x="320" y="1528" width="140" height="26" as="geometry" />
        </mxCell>
      </root>
    </mxGraphModel>
  </diagram>
</mxfile>
